<svg width="162" height="163" viewBox="0 0 162 163" fill="none" xmlns="http://www.w3.org/2000/svg">
<rect x="66" y="83" width="18" height="65" fill="#ED713B"/>
<rect x="99" y="101" width="18" height="47" fill="#ED713B"/>
<rect x="32" y="124" width="18" height="24" fill="#ED713B"/>
<rect x="132" y="61" width="18" height="87" fill="#ED713B"/>
<path fill-rule="evenodd" clip-rule="evenodd" d="M0.632812 0.632812C0.0126562 1.25297 0 1.6874 0 22.3209V43.3764L0.811898 44.1883C1.46686 44.8433 1.8187 44.9629 2.63123 44.806C3.18526 44.699 3.888 44.3111 4.19238 43.9444C4.70623 43.3255 4.74609 41.895 4.74609 24.0118V4.74609H7.43555H10.125V77.5338V150.322L10.9018 151.098L11.6782 151.875H84.4662H157.254V154.566V157.258L81.7999 157.177L6.34553 157.096L5.62507 156.375L4.9043 155.654L4.82235 103.977C4.74072 52.4083 4.73913 52.2988 4.09461 51.7157C3.15584 50.8658 1.33523 50.9446 0.588516 51.8669C0.00949216 52.5817 -0.00506251 54.0931 0.0753047 104.901L0.158203 157.199L1.11976 158.568C1.64879 159.32 2.71666 160.365 3.49281 160.889L4.9043 161.842L82.757 161.923L160.61 162.005L161.305 161.357C161.973 160.735 162 160.481 162 154.736C162 151.451 161.911 148.532 161.804 148.251C161.403 147.207 159.943 146.812 156.479 146.812H153.141V116.322C153.141 85.9546 153.138 85.828 152.485 84.9978C151.833 84.1688 150.668 83.9188 149.516 84.3605C148.058 84.9203 148.078 84.4659 148.078 116.58V146.812H140.959H133.84V104.889V62.9648H140.959H148.078V69.3088C148.078 77.0987 148.325 77.8359 150.929 77.8359C151.524 77.8359 152.051 77.554 152.485 77.0022C153.11 76.208 153.141 75.7844 153.141 68.0273C153.141 60.2703 153.11 59.8467 152.485 59.0525L151.829 58.2188H141.094C130.781 58.2188 130.334 58.2437 129.727 58.8516C129.1 59.4784 129.094 59.9061 129.094 103.148V146.812H124.506H119.918V123.701V100.588L119.141 99.8119L118.365 99.0352H107.951C97.8961 99.0352 97.5098 99.0576 96.7048 99.6911L95.8711 100.347V123.58V146.812H91.2832H86.6953L86.6852 114.144C86.6776 88.9617 86.5868 81.3594 86.2897 80.9725C85.3933 79.8049 84.7146 79.7344 74.3618 79.7344H64.2017L63.4252 80.5112L62.6484 81.2876V114.05V146.812H58.0605H53.4727V134.99C53.4727 123.509 53.4537 123.143 52.8167 122.334L52.1612 121.5H41.4261C31.1132 121.5 30.6664 121.525 30.0586 122.133C29.4479 122.743 29.4258 123.187 29.4258 134.789V146.812H22.3066H15.1875V140.326V133.84H18.3285C21.3451 133.84 21.4957 133.807 22.1253 133.006C22.9955 131.9 22.9537 130.819 22.0045 129.871C21.2884 129.154 20.9926 129.094 18.2076 129.094H15.1875V113.748V98.4023H18.2076C20.9926 98.4023 21.2884 98.3419 22.0045 97.6256C22.9537 96.6767 22.9955 95.5958 22.1253 94.49C21.4957 93.6895 21.3451 93.6562 18.3285 93.6562H15.1875V78.3105V62.9648H18.2076C20.9926 62.9648 21.2884 62.9044 22.0045 62.1881C22.9537 61.2392 22.9955 60.1583 22.1253 59.0525C21.4957 58.252 21.3451 58.2188 18.3285 58.2188H15.1875V42.873V27.5273H18.2076C20.9926 27.5273 21.2884 27.4669 22.0045 26.7506C22.9882 25.7672 22.9926 24.6446 22.0181 23.5109C21.296 22.6711 21.0904 22.617 18.2212 22.5133L15.1875 22.4038V12.2936C15.1875 1.70258 15.0685 0.702738 13.7494 0.196488C13.4678 0.0885938 10.5436 0 7.2514 0C1.68739 0 1.22101 0.0446133 0.632812 0.632812ZM130.992 12.3892C127.251 12.5553 123.661 12.8296 123.016 12.9986C122.371 13.1679 121.24 13.7665 120.502 14.3288C115.97 17.7858 116.894 24.9271 122.168 27.1961L123.79 27.8937L122.848 28.8971C122.33 29.4489 118.53 33.7447 114.403 38.4434C110.277 43.142 106.715 47.1173 106.486 47.2777C106.197 47.4802 104.735 46.7927 101.677 45.0158C99.2598 43.6119 97.0004 42.4196 96.6558 42.3665C94.3555 42.0124 92.77 44.4579 94.21 46.1387C94.5143 46.4943 97.2664 48.2187 100.325 49.9707C105.928 53.1797 107.182 53.6195 108.279 52.7607C108.557 52.5434 112.093 48.5921 116.136 43.9805C120.18 39.3688 125.283 33.5536 127.478 31.0578C129.672 28.562 131.567 26.2522 131.691 25.9251C131.988 25.1347 131.388 23.4786 130.663 23.091C130.345 22.9208 128.716 22.7812 127.043 22.7812C124.237 22.7812 123.943 22.7214 123.226 22.0045C122.219 20.9974 122.199 19.5223 123.18 18.5414C124.043 17.6786 125.43 17.528 135.472 17.2074L142.008 16.9986L142.786 17.777C143.447 18.4373 143.594 18.9581 143.759 21.2217C144.115 26.0931 144.366 35.6881 144.159 36.5123C143.717 38.2753 140.691 38.7449 139.684 37.2068C139.429 36.8183 139.125 35.3768 139.009 34.0039C138.772 31.1932 138.046 30.0586 136.486 30.0586C135.307 30.0586 135.975 29.3432 117.896 49.9738C109.831 59.1765 109.1 59.9061 107.95 59.9061C107.354 59.9061 105.313 58.9247 102.314 57.1955C99.7275 55.7046 94.8349 52.881 91.4414 50.9205C78.9006 43.6755 75.4835 41.7656 75.062 41.7656C74.2998 41.7656 73.6037 42.2693 61.6214 51.4891C55.1382 56.4772 48.1972 61.8182 46.1963 63.3575C44.1956 64.8965 42.2485 66.234 41.8691 66.3292C40.1535 66.7598 38.2823 64.7234 38.8395 63.0329C39.0452 62.408 43.7758 58.5788 56.1852 48.9917C65.5698 41.7416 73.6439 35.7137 74.1277 35.5963C74.8611 35.4185 75.8878 35.8871 80.3036 38.4161C85.9587 41.6549 87.0965 41.9972 88.2773 40.8164C89.1516 39.9422 89.1123 38.2605 88.1982 37.44C87.8065 37.0888 85.1595 35.4701 82.3153 33.8434C77.7869 31.2533 76.9218 30.8695 75.3509 30.756C74.3646 30.6848 72.9895 30.7822 72.2953 30.9727C71.4385 31.2081 68.0324 33.6318 61.6897 38.5199C56.5507 42.4804 48.6876 48.5374 44.2165 51.9802C39.7451 55.423 35.7466 58.6978 35.3312 59.2575C32.4361 63.1585 34.0086 68.8842 38.4892 70.7563C40.1276 71.441 43.0047 71.3113 44.6399 70.4795C45.4094 70.0878 48.744 67.6774 52.0498 65.1224C70.382 50.9557 74.9753 47.4609 75.2632 47.4609C75.4385 47.4609 77.2636 48.4374 79.3193 49.6309C95.113 58.8013 103.81 63.7818 104.889 64.2729C106.537 65.024 109.26 65.0215 110.9 64.2678C112.315 63.6176 113.571 62.3361 120.393 54.5801C122.996 51.6217 127.27 46.7762 129.893 43.8128L134.66 38.4241L135.49 39.7571C135.947 40.4902 136.926 41.4913 137.667 41.9817C138.881 42.7851 139.282 42.873 141.727 42.873C144.278 42.873 144.529 42.8113 145.935 41.8346C146.758 41.2632 147.825 40.1251 148.308 39.3034L149.186 37.8105L149.095 31.8703C148.898 18.8974 148.566 16.6316 146.539 14.4465C144.341 12.0769 142.755 11.8671 130.992 12.3892ZM81.6328 115.805V146.812H74.5137H67.3945V115.805V84.7969H74.5137H81.6328V115.805ZM114.855 125.297V146.812H107.736H100.617V125.297V103.781H107.736H114.855V125.297ZM48.4102 136.529V146.812H41.291H34.1719V136.529V126.246H41.291H48.4102V136.529Z" fill="#344977"/>
</svg>
